<?xml version="1.0" encoding="UTF-8" standalone="no"?><svg xmlns="http://www.w3.org/2000/svg" xmlns:xlink="http://www.w3.org/1999/xlink" fill="#ffffff" height="479.5" preserveAspectRatio="xMidYMid meet" version="1" viewBox="0.0 0.0 500.0 479.5" width="500" zoomAndPan="magnify"><g id="change1_1"><path d="M425.2045593,150.6361389h27.5505371v27.5505371h-27.5505371V150.6361389z M94.48983,215.8457031h27.5505371v-27.5505219 H94.48983V215.8457031z M94.48983,178.186676h27.5505371v-27.5505371H94.48983V178.186676z M0,328.8228149h27.5505333V225.9542084H0 V328.8228149z M472.4494629,37.6590347v27.5505371H500V37.6590347H472.4494629z M452.7550964,0h-27.5505371v27.5508385h27.5505371V0 z M330.7147217,102.8689117h27.5502319V75.3180695h-27.5502319V102.8689117z M188.97966,140.5276337h27.5505371v-27.5505295 H188.97966V140.5276337z M377.9593201,441.7999268h27.5508423v-27.5505371h-27.5508423V441.7999268z M188.97966,404.1408997 h27.5505371v-27.5505371H188.97966V404.1408997z M141.7347412,404.1408997h27.5505371v-27.5505371h-27.5505371V404.1408997z M283.4694824,328.8228149h27.5508423v-27.5505371h-27.5508423V328.8228149z M283.4694824,291.1637878h27.5508423v-27.5505371 h-27.5508423V291.1637878z M236.2245789,328.8228149h27.5505371v-27.5505371h-27.5505371V328.8228149z M492.4801331,188.2951813 h-12.5108032c-4.1531067,0-7.5198669,3.366745-7.5198669,7.5198669v12.510788c0,4.1531219,3.3667603,7.5198669,7.5198669,7.5198669 h12.5108032c4.1531067,0,7.5198669-3.366745,7.5198669-7.5198669v-12.510788 C500,191.6619263,496.6332397,188.2951813,492.4801331,188.2951813z M492.4801331,150.6361389h-12.5108032 c-4.1531067,0-7.5198669,3.366745-7.5198669,7.5198822v12.5107727c0,4.1531372,3.3667603,7.5198822,7.5198669,7.5198822h12.5108032 c4.1531067,0,7.5198669-3.366745,7.5198669-7.5198822v-12.5107727C500,154.0028839,496.6332397,150.6361389,492.4801331,150.6361389 z M445.235199,225.9542084h-12.5107727c-4.1531372,0-7.5198669,3.366745-7.5198669,7.5198822v12.510788 c0,4.1531219,3.3667297,7.5198669,7.5198669,7.5198669h12.5107727c4.1531372,0,7.5198975-3.366745,7.5198975-7.5198669v-12.510788 C452.7550964,229.3209534,449.3883362,225.9542084,445.235199,225.9542084z M397.9902954,188.2951813H385.479187 c-4.1528015,0-7.5198669,3.366745-7.5198669,7.5198669v12.510788c0,4.1531219,3.3670654,7.5198669,7.5198669,7.5198669h12.5111084 c4.1531372,0,7.5198669-3.366745,7.5198669-7.5198669v-12.510788 C405.5101624,191.6619263,402.1434326,188.2951813,397.9902954,188.2951813z M350.7450867,225.9542084h-12.510498 c-4.1534424,0-7.5198669,3.366745-7.5198669,7.5198822v12.510788c0,4.1531219,3.3664246,7.5198669,7.5198669,7.5198669h12.510498 c4.1534119,0,7.5198669-3.366745,7.5198669-7.5198669v-12.510788 C358.2649536,229.3209534,354.8984985,225.9542084,350.7450867,225.9542084z M350.7450867,188.2951813h-12.510498 c-4.1534424,0-7.5198669,3.366745-7.5198669,7.5198669v12.510788c0,4.1531219,3.3664246,7.5198669,7.5198669,7.5198669h12.510498 c4.1534119,0,7.5198669-3.366745,7.5198669-7.5198669v-12.510788 C358.2649536,191.6619263,354.8984985,188.2951813,350.7450867,188.2951813z M350.7450867,150.6361389h-12.510498 c-4.1534424,0-7.5198669,3.366745-7.5198669,7.5198822v12.5107727c0,4.1531372,3.3664246,7.5198822,7.5198669,7.5198822h12.510498 c4.1534119,0,7.5198669-3.366745,7.5198669-7.5198822v-12.5107727 C358.2649536,154.0028839,354.8984985,150.6361389,350.7450867,150.6361389z M303.5004578,225.9542084h-12.5110779 c-4.1531372,0-7.5198975,3.366745-7.5198975,7.5198822v12.510788c0,4.1531219,3.3667603,7.5198669,7.5198975,7.5198669h12.5110779 c4.152832,0,7.5198669-3.366745,7.5198669-7.5198669v-12.510788 C311.0203247,229.3209534,307.6532898,225.9542084,303.5004578,225.9542084z M303.5004578,188.2951813h-12.5110779 c-4.1531372,0-7.5198975,3.366745-7.5198975,7.5198669v12.510788c0,4.1531219,3.3667603,7.5198669,7.5198975,7.5198669h12.5110779 c4.152832,0,7.5198669-3.366745,7.5198669-7.5198669v-12.510788 C311.0203247,191.6619263,307.6532898,188.2951813,303.5004578,188.2951813z M303.5004578,150.6361389h-47.2433777 c-0.0006104,0-0.0012207,0-0.0018311,0h-12.510788c-2.076416,0-3.9563904,0.8417664-5.3170929,2.2024841 c-0.5103912,0.510376-0.9479523,1.0935822-1.2949371,1.7330933c-0.2316284,0.426239-0.423172,0.8772583-0.5697327,1.3481598 c-0.0731354,0.235611-0.1352539,0.4758148-0.1854248,0.7205963c-0.1000671,0.4895782-0.1526947,0.9965973-0.1526947,1.5155487l0,0 v12.5107727v0.0003204c0,4.1528168,3.366745,7.5198669,7.5198822,7.5198669h59.7559967 c4.152832,0,7.5198669-3.3670502,7.5198669-7.5198669v-12.5110931 C311.0203247,154.0028839,307.6532898,150.6361389,303.5004578,150.6361389z M256.255249,225.9542084h-12.510788 c-4.1531372,0-7.5198822,3.366745-7.5198822,7.5198822v12.510788c0,4.1531219,3.366745,7.5198669,7.5198822,7.5198669h12.510788 c4.1531067,0,7.5198669-3.366745,7.5198669-7.5198669v-12.510788 C263.775116,229.3209534,260.4083557,225.9542084,256.255249,225.9542084z M209.0103302,225.9542084h-12.510788 c-4.1531372,0-7.5198822,3.366745-7.5198822,7.5198822v37.6590271v12.5108032l0,0 c0,0.5192566,0.0526276,1.0259399,0.1526947,1.5155334c0.0501709,0.2447815,0.1122894,0.4849854,0.1854248,0.7205811 c0.1465607,0.4712219,0.3381042,0.9222412,0.5694275,1.348175c0.2316437,0.4265442,0.5030518,0.8276978,0.8096466,1.1991577 c1.3793793,1.6712952,3.4664917,2.7364197,5.8026886,2.7364197h12.510788c2.3361816,0,4.4236145-1.0651245,5.8026886-2.7364197 c0.3065948-0.37146,0.5780029-0.7726135,0.8096313-1.1991577c0.2316284-0.4259338,0.423172-0.8769531,0.5694275-1.348175 c0.0734406-0.2355957,0.1352539-0.4757996,0.1854401-0.7205811c0.1000519-0.4895935,0.1526794-0.9962769,0.1526794-1.5155334l0,0 v-12.5108032v-37.6590271C216.5301971,229.3209534,213.1634521,225.9542084,209.0103302,225.9542084z M209.0103302,150.6361389 h-12.510788c-4.1531372,0-7.5198822,3.366745-7.5198822,7.5198822v12.5107727c0,4.1531372,3.366745,7.5198822,7.5198822,7.5198822 h12.510788c4.1531219,0,7.5198669-3.366745,7.5198669-7.5198822v-12.5107727 C216.5301971,154.0028839,213.1634521,150.6361389,209.0103302,150.6361389z M161.7654114,225.9542084h-12.510788 c-4.1531219,0-7.5198822,3.366745-7.5198822,7.5198822v12.510788c0,4.1531219,3.3667603,7.5198669,7.5198822,7.5198669h12.510788 c4.1531219,0,7.5198669-3.366745,7.5198669-7.5198669v-12.510788 C169.2852783,229.3209534,165.9185333,225.9542084,161.7654114,225.9542084z M161.7654114,188.2951813h-12.510788 c-4.1531219,0-7.5198822,3.366745-7.5198822,7.5198669v12.510788c0,4.1531219,3.3667603,7.5198669,7.5198822,7.5198669h12.510788 c4.1531219,0,7.5198669-3.366745,7.5198669-7.5198669v-12.510788 C169.2852783,191.6619263,165.9185333,188.2951813,161.7654114,188.2951813z M161.7654114,150.6361389h-12.510788 c-4.1531219,0-7.5198822,3.366745-7.5198822,7.5198822v12.5107727c0,4.1531372,3.3667603,7.5198822,7.5198822,7.5198822h12.510788 c4.1531219,0,7.5198669-3.366745,7.5198669-7.5198822v-12.5107727 C169.2852783,154.0028839,165.9185333,150.6361389,161.7654114,150.6361389z M114.5204926,225.9542084h-12.510788 c-4.1531219,0-7.5198746,3.366745-7.5198746,7.5198822v12.510788c0,4.1531219,3.3667526,7.5198669,7.5198746,7.5198669h12.510788 c4.1531296,0,7.5198746-3.366745,7.5198746-7.5198669v-12.510788 C122.0403671,229.3209534,118.6736221,225.9542084,114.5204926,225.9542084z M54.7647896,253.5047455h12.5107841 c4.1531296,0,7.5198746-3.366745,7.5198746-7.5198669v-12.510788c0-4.1531372-3.366745-7.5198822-7.5198746-7.5198822H54.7647896 c-4.1531258,0-7.5198746,3.366745-7.5198746,7.5198822v12.510788 C47.244915,250.1380005,50.6116638,253.5047455,54.7647896,253.5047455z M54.7647896,215.8457031h12.5107841 c4.1531296,0,7.5198746-3.366745,7.5198746-7.5198669v-12.510788c0-4.1531219-3.366745-7.5198669-7.5198746-7.5198669H54.7647896 c-4.1531258,0-7.5198746,3.366745-7.5198746,7.5198669v12.510788 C47.244915,212.4789581,50.6116638,215.8457031,54.7647896,215.8457031z M54.7647896,178.186676h12.5107841 c4.1531296,0,7.5198746-3.366745,7.5198746-7.5198822v-12.5107727c0-4.1531372-3.366745-7.5198822-7.5198746-7.5198822H54.7647896 c-4.1531258,0-7.5198746,3.366745-7.5198746,7.5198822v12.5107727 C47.244915,174.819931,50.6116638,178.186676,54.7647896,178.186676z M7.5198736,178.186676h12.5107851 c4.1531277,0,7.5198746-3.366745,7.5198746-7.5198822v-12.5107727c0-4.1531372-3.3667469-7.5198822-7.5198746-7.5198822H7.5198736 C3.3667469,150.6361389,0,154.0028839,0,158.1560211v12.5107727C0,174.819931,3.3667469,178.186676,7.5198736,178.186676z M445.235199,112.9771042h-12.5107727c-4.1531372,0-7.5198669,3.3667526-7.5198669,7.5198746v12.510788 c0,4.1531219,3.3667297,7.5198669,7.5198669,7.5198669h12.5107727c4.1531372,0,7.5198975-3.366745,7.5198975-7.5198669v-12.510788 C452.7550964,116.3438568,449.3883362,112.9771042,445.235199,112.9771042z M492.4801331,75.3180695h-12.5108032h-47.2449036 c-4.1531372,0-7.5198669,3.366745-7.5198669,7.5198746v12.5110931c0,4.1528168,3.3667297,7.5198746,7.5198669,7.5198746h47.2449036 h12.5108032c2.076416,0,3.9563599-0.8417664,5.3173828-2.2027817c1.1905823-1.1905899,1.9840088-2.7786484,2.1636353-4.5484619 C499.9868469,95.8649292,500,95.6085129,500,95.3490372V82.837944C500,78.6848145,496.6332397,75.3180695,492.4801331,75.3180695z M397.9902954,112.9771042H385.479187c-4.1528015,0-7.5198669,3.3667526-7.5198669,7.5198746v12.510788 c0,4.1531219,3.3670654,7.5198669,7.5198669,7.5198669h12.5111084c4.1531372,0,7.5198669-3.366745,7.5198669-7.5198669v-12.510788 C405.5101624,116.3438568,402.1434326,112.9771042,397.9902954,112.9771042z M397.9902954,75.3180695H385.479187 c-4.1528015,0-7.5198669,3.366745-7.5198669,7.5198746v12.5110931c0,4.1528168,3.3670654,7.5198746,7.5198669,7.5198746h12.5111084 c4.1531372,0,7.5198669-3.3670578,7.5198669-7.5198746V82.837944 C405.5101624,78.6848145,402.1434326,75.3180695,397.9902954,75.3180695z M397.9902954,37.6590347H385.479187 c-4.1528015,0-7.5198669,3.3667488-7.5198669,7.5198746v12.5107841c0,4.1534348,3.3670654,7.5198784,7.5198669,7.5198784h12.5111084 c4.1531372,0,7.5198669-3.3664436,7.5198669-7.5198784V45.1789093 C405.5101624,41.0257835,402.1434326,37.6590347,397.9902954,37.6590347z M397.9902954,0H385.479187 c-4.1528015,0-7.5198669,3.3667469-7.5198669,7.5198736v12.5110922c0,4.1528206,3.3670654,7.5198727,7.5198669,7.5198727h12.5111084 c4.1531372,0,7.5198669-3.3670521,7.5198669-7.5198727V7.5198736C405.5101624,3.3667469,402.1434326,0,397.9902954,0z M350.7450867,112.9771042h-12.510498c-4.1534424,0-7.5198669,3.3667526-7.5198669,7.5198746v12.510788 c0,4.1531219,3.3664246,7.5198669,7.5198669,7.5198669h12.510498c4.1534119,0,7.5198669-3.366745,7.5198669-7.5198669v-12.510788 C358.2649536,116.3438568,354.8984985,112.9771042,350.7450867,112.9771042z M290.9893799,140.5276337h12.5110779 c4.152832,0,7.5198669-3.366745,7.5198669-7.5198669V82.837944c0-4.1531296-3.3670349-7.5198746-7.5198669-7.5198746h-12.5110779 c-4.1531372,0-7.5198975,3.366745-7.5198975,7.5198746v50.1698227 C283.4694824,137.1608887,286.8362427,140.5276337,290.9893799,140.5276337z M290.9893799,65.2095718h12.5110779 c4.152832,0,7.5198669-3.3664436,7.5198669-7.5198784V45.1789093c0-4.1531258-3.3670349-7.5198746-7.5198669-7.5198746h-12.5110779 c-4.1531372,0-7.5198975,3.3667488-7.5198975,7.5198746v12.5107841 C283.4694824,61.8431282,286.8362427,65.2095718,290.9893799,65.2095718z M290.9893799,27.5508385h12.5110779 c4.152832,0,7.5198669-3.3670521,7.5198669-7.5198727V7.5198736C311.0203247,3.3667469,307.6532898,0,303.5004578,0h-12.5110779 c-4.1531372,0-7.5198975,3.3667469-7.5198975,7.5198736v12.5110922 C283.4694824,24.1837864,286.8362427,27.5508385,290.9893799,27.5508385z M256.255249,75.3180695h-12.510788 c-4.1531372,0-7.5198822,3.366745-7.5198822,7.5198746v12.5110931c0,4.1528168,3.366745,7.5198746,7.5198822,7.5198746h12.510788 c4.1531067,0,7.5198669-3.3670578,7.5198669-7.5198746V82.837944 C263.775116,78.6848145,260.4083557,75.3180695,256.255249,75.3180695z M209.0103302,75.3180695h-12.510788 c-4.1531372,0-7.5198822,3.366745-7.5198822,7.5198746v12.5110931c0,4.1528168,3.366745,7.5198746,7.5198822,7.5198746h12.510788 c4.1531219,0,7.5198669-3.3670578,7.5198669-7.5198746V82.837944 C216.5301971,78.6848145,213.1634521,75.3180695,209.0103302,75.3180695z M196.4995422,27.5508385h12.510788 c4.1531219,0,7.5198669-3.3670521,7.5198669-7.5198727V7.5198736C216.5301971,3.3667469,213.1634521,0,209.0103302,0h-12.510788 c-4.1531372,0-7.5198822,3.3667469-7.5198822,7.5198736v12.5110922 C188.97966,24.1837864,192.346405,27.5508385,196.4995422,27.5508385z M161.7654114,112.9771042h-12.510788 c-4.1531219,0-7.5198822,3.3667526-7.5198822,7.5198746v12.510788c0,4.1531219,3.3667603,7.5198669,7.5198822,7.5198669h12.510788 c4.1531219,0,7.5198669-3.366745,7.5198669-7.5198669v-12.510788 C169.2852783,116.3438568,165.9185333,112.9771042,161.7654114,112.9771042z M161.7654114,75.3180695h-12.510788 c-4.1531219,0-7.5198822,3.366745-7.5198822,7.5198746v12.5110931c0,4.1528168,3.3667603,7.5198746,7.5198822,7.5198746h12.510788 c4.1531219,0,7.5198669-3.3670578,7.5198669-7.5198746V82.837944 C169.2852783,78.6848145,165.9185333,75.3180695,161.7654114,75.3180695z M149.2546234,65.2095718h47.2449188h12.510788h34.7341309 h12.510788c0.2597656,0,0.5161743-0.0128555,0.7689209-0.038559c2.0225525-0.2056198,3.8079834-1.212307,5.0337524-2.6978645 c1.0727844-1.2998199,1.7171936-2.9662132,1.7171936-4.7834549V45.1789093c0-0.2594757-0.0128479-0.5158882-0.0385437-0.76894 c-0.1774902-1.746254-0.9546814-3.3144226-2.1195679-4.4998055c-0.0152893-0.0153008-0.0287476-0.0330467-0.0443726-0.0483475 c-0.0152893-0.0156059-0.0330505-0.029068-0.048645-0.0443649c-1.1853943-1.1648865-2.7532349-1.9420853-4.4998169-2.1195564 c-0.2527466-0.0257034-0.5091553-0.0388603-0.7689209-0.0388603h-12.510788h-34.7341309h-12.510788h-47.2449188 c-4.1531219,0-7.5198822,3.3667488-7.5198822,7.5198746v12.5107841 C141.7347412,61.8431282,145.1015015,65.2095718,149.2546234,65.2095718z M149.2546234,27.5508385h12.510788 c4.1531219,0,7.5198669-3.3670521,7.5198669-7.5198727V7.5198736C169.2852783,3.3667469,165.9185333,0,161.7654114,0h-12.510788 c-4.1531219,0-7.5198822,3.3667469-7.5198822,7.5198736v12.5110922 C141.7347412,24.1837864,145.1015015,27.5508385,149.2546234,27.5508385z M114.5204926,37.6590347h-12.510788 c-4.1531219,0-7.5198746,3.3667488-7.5198746,7.5198746v12.5107841c0,4.1534348,3.3667526,7.5198784,7.5198746,7.5198784h12.510788 c4.1531296,0,7.5198746-3.3664436,7.5198746-7.5198784V45.1789093 C122.0403671,41.0257835,118.6736221,37.6590347,114.5204926,37.6590347z M114.5204926,0h-12.510788 C97.8565826,0,94.48983,3.3667469,94.48983,7.5198736v12.5110922c0,4.1528206,3.3667526,7.5198727,7.5198746,7.5198727h12.510788 c4.1531296,0,7.5198746-3.3670521,7.5198746-7.5198727V7.5198736C122.0403671,3.3667469,118.6736221,0,114.5204926,0z M54.7647896,140.5276337h12.5107841c4.1531296,0,7.5198746-3.366745,7.5198746-7.5198669v-12.510788 c0-4.1531219-3.366745-7.5198746-7.5198746-7.5198746H54.7647896c-4.1531258,0-7.5198746,3.3667526-7.5198746,7.5198746v12.510788 C47.244915,137.1608887,50.6116638,140.5276337,54.7647896,140.5276337z M54.7647896,65.2095718h12.5107841 c4.1531296,0,7.5198746-3.3664436,7.5198746-7.5198784V45.1789093c0-4.1531258-3.366745-7.5198746-7.5198746-7.5198746H54.7647896 c-4.1531258,0-7.5198746,3.3667488-7.5198746,7.5198746v12.5107841 C47.244915,61.8431282,50.6116638,65.2095718,54.7647896,65.2095718z M54.7647896,27.5508385h12.5107841 c4.1531296,0,7.5198746-3.3670521,7.5198746-7.5198727V7.5198736C74.7954483,3.3667469,71.4287033,0,67.2755737,0H54.7647896 c-4.1531258,0-7.5198746,3.3667469-7.5198746,7.5198736v12.5110922 C47.244915,24.1837864,50.6116638,27.5508385,54.7647896,27.5508385z M7.5198736,140.5276337h12.5107851 c4.1531277,0,7.5198746-3.366745,7.5198746-7.5198669v-12.510788c0-4.1531219-3.3667469-7.5198746-7.5198746-7.5198746H7.5198736 C3.3667469,112.9771042,0,116.3438568,0,120.4969788v12.510788C0,137.1608887,3.3667469,140.5276337,7.5198736,140.5276337z M7.5198736,102.8689117h12.5107851c4.1531277,0,7.5198746-3.3670578,7.5198746-7.5198746V82.837944 c0-4.1531296-3.3667469-7.5198746-7.5198746-7.5198746H7.5198736C3.3667469,75.3180695,0,78.6848145,0,82.837944v12.5110931 C0,99.5018539,3.3667469,102.8689117,7.5198736,102.8689117z M7.5198736,27.5508385h12.5107851 c4.1531277,0,7.5198746-3.3670521,7.5198746-7.5198727V7.5198736C27.5505333,3.3667469,24.1837864,0,20.0306587,0H7.5198736 C3.3667469,0,0,3.3667469,0,7.5198736v12.5110922C0,24.1837864,3.3667469,27.5508385,7.5198736,27.5508385z M492.4801331,414.2493896h-12.5108032c-4.1531067,0-7.5198669,3.3667603-7.5198669,7.5198669v12.5108032 c0,4.1531067,3.3667603,7.5198669,7.5198669,7.5198669h12.5108032c4.1531067,0,7.5198669-3.3667603,7.5198669-7.5198669v-12.5108032 C500,417.6161499,496.6332397,414.2493896,492.4801331,414.2493896z M492.4801331,376.5903625h-12.5108032 c-4.1531067,0-7.5198669,3.3667297-7.5198669,7.5198669v12.5107727c0,4.1531372,3.3667603,7.5198975,7.5198669,7.5198975h12.5108032 c4.1531067,0,7.5198669-3.3667603,7.5198669-7.5198975v-12.5107727 C500,379.9570923,496.6332397,376.5903625,492.4801331,376.5903625z M445.235199,451.9084167h-12.5107727 c-4.1531372,0-7.5198669,3.3667603-7.5198669,7.5198669v12.5108032c0,4.1531372,3.3667297,7.5198669,7.5198669,7.5198669h12.5107727 c4.1531372,0,7.5198975-3.3667297,7.5198975-7.5198669v-12.5108032 C452.7550964,455.275177,449.3883362,451.9084167,445.235199,451.9084167z M445.235199,376.5903625h-12.5107727 c-4.1531372,0-7.5198669,3.3667297-7.5198669,7.5198669v12.5107727c0,4.1531372,3.3667297,7.5198975,7.5198669,7.5198975h12.5107727 c4.1531372,0,7.5198975-3.3667603,7.5198975-7.5198975v-12.5107727 C452.7550964,379.9570923,449.3883362,376.5903625,445.235199,376.5903625z M350.7450867,451.9084167h-12.510498 c-4.1534424,0-7.5198669,3.3667603-7.5198669,7.5198669v12.5108032c0,4.1531372,3.3664246,7.5198669,7.5198669,7.5198669h12.510498 c4.1534119,0,7.5198669-3.3667297,7.5198669-7.5198669v-12.5108032 C358.2649536,455.275177,354.8984985,451.9084167,350.7450867,451.9084167z M350.7450867,414.2493896h-12.510498 c-4.1534424,0-7.5198669,3.3667603-7.5198669,7.5198669v12.5108032c0,4.1531067,3.3664246,7.5198669,7.5198669,7.5198669h12.510498 c4.1534119,0,7.5198669-3.3667603,7.5198669-7.5198669v-12.5108032 C358.2649536,417.6161499,354.8984985,414.2493896,350.7450867,414.2493896z M350.7450867,376.5903625h-12.510498 c-4.1534424,0-7.5198669,3.3667297-7.5198669,7.5198669v12.5107727c0,4.1531372,3.3664246,7.5198975,7.5198669,7.5198975h12.510498 c4.1534119,0,7.5198669-3.3667603,7.5198669-7.5198975v-12.5107727 C358.2649536,379.9570923,354.8984985,376.5903625,350.7450867,376.5903625z M303.5004578,451.9084167h-12.5110779 c-4.1531372,0-7.5198975,3.3667603-7.5198975,7.5198669v12.5108032c0,4.1531372,3.3667603,7.5198669,7.5198975,7.5198669h12.5110779 c4.152832,0,7.5198669-3.3667297,7.5198669-7.5198669v-12.5108032 C311.0203247,455.275177,307.6532898,451.9084167,303.5004578,451.9084167z M303.5004578,414.2493896h-12.5110779 c-4.1531372,0-7.5198975,3.3667603-7.5198975,7.5198669v12.5108032c0,4.1531067,3.3667603,7.5198669,7.5198975,7.5198669h12.5110779 c4.152832,0,7.5198669-3.3667603,7.5198669-7.5198669v-12.5108032 C311.0203247,417.6161499,307.6532898,414.2493896,303.5004578,414.2493896z M303.5004578,376.5903625h-12.5110779 c-4.1531372,0-7.5198975,3.3667297-7.5198975,7.5198669v12.5107727c0,4.1531372,3.3667603,7.5198975,7.5198975,7.5198975h12.5110779 c4.152832,0,7.5198669-3.3667603,7.5198669-7.5198975v-12.5107727 C311.0203247,379.9570923,307.6532898,376.5903625,303.5004578,376.5903625z M256.255249,451.9084167h-12.510788 c-4.1531372,0-7.5198822,3.3667603-7.5198822,7.5198669v12.5108032c0,4.1531372,3.366745,7.5198669,7.5198822,7.5198669h12.510788 c4.1531067,0,7.5198669-3.3667297,7.5198669-7.5198669v-12.5108032 C263.775116,455.275177,260.4083557,451.9084167,256.255249,451.9084167z M256.255249,376.5903625h-12.510788 c-4.1531372,0-7.5198822,3.3667297-7.5198822,7.5198669v12.5107727c0,4.1531372,3.366745,7.5198975,7.5198822,7.5198975h12.510788 c4.1531067,0,7.5198669-3.3667603,7.5198669-7.5198975v-12.5107727 C263.775116,379.9570923,260.4083557,376.5903625,256.255249,376.5903625z M209.0103302,451.9084167h-12.510788 c-4.1531372,0-7.5198822,3.3667603-7.5198822,7.5198669v12.5108032c0,4.1531372,3.366745,7.5198669,7.5198822,7.5198669h12.510788 c4.1531219,0,7.5198669-3.3667297,7.5198669-7.5198669v-12.5108032 C216.5301971,455.275177,213.1634521,451.9084167,209.0103302,451.9084167z M161.7654114,451.9084167h-12.510788 c-4.1531219,0-7.5198822,3.3667603-7.5198822,7.5198669v12.5108032c0,4.1531372,3.3667603,7.5198669,7.5198822,7.5198669h12.510788 c4.1531219,0,7.5198669-3.3667297,7.5198669-7.5198669v-12.5108032 C169.2852783,455.275177,165.9185333,451.9084167,161.7654114,451.9084167z M161.7654114,414.2493896h-12.510788 c-4.1531219,0-7.5198822,3.3667603-7.5198822,7.5198669v12.5108032c0,4.1531067,3.3667603,7.5198669,7.5198822,7.5198669h12.510788 c4.1531219,0,7.5198669-3.3667603,7.5198669-7.5198669v-12.5108032 C169.2852783,417.6161499,165.9185333,414.2493896,161.7654114,414.2493896z M114.5204926,451.9084167h-12.510788 c-4.1531219,0-7.5198746,3.3667603-7.5198746,7.5198669v12.5108032c0,4.1531372,3.3667526,7.5198669,7.5198746,7.5198669h12.510788 c4.1531296,0,7.5198746-3.3667297,7.5198746-7.5198669v-12.5108032 C122.0403671,455.275177,118.6736221,451.9084167,114.5204926,451.9084167z M114.5204926,376.5903625h-12.510788 c-4.1531219,0-7.5198746,3.3667297-7.5198746,7.5198669v12.5107727c0,4.1531372,3.3667526,7.5198975,7.5198746,7.5198975h12.510788 c4.1531296,0,7.5198746-3.3667603,7.5198746-7.5198975v-12.5107727 C122.0403671,379.9570923,118.6736221,376.5903625,114.5204926,376.5903625z M67.2755737,451.9084167H54.7647896 c-4.1531258,0-7.5198746,3.3667603-7.5198746,7.5198669v12.5108032c0,4.1531372,3.3667488,7.5198669,7.5198746,7.5198669h12.5107841 c4.1531296,0,7.5198746-3.3667297,7.5198746-7.5198669v-12.5108032 C74.7954483,455.275177,71.4287033,451.9084167,67.2755737,451.9084167z M54.7647896,441.7999268h12.5107841 c0.002449,0,0.0048981-0.0003052,0.0076523-0.0003052h47.2369614c4.1531219,0,7.5198746-3.3667603,7.5198746-7.5198669v-12.5108032 c0-4.1534119-3.3667526-7.5198669-7.5198746-7.5198669h-59.755703c-4.1531258,0-7.5198746,3.3664551-7.5198746,7.5198669v12.5108032 c0,1.816925,0.6444054,3.4836121,1.717186,4.7834473C50.3411713,440.7344971,52.4286003,441.7999268,54.7647896,441.7999268z M54.7647896,404.1408997h12.5107841c4.1531296,0,7.5198746-3.3667603,7.5198746-7.5198975v-12.5107727 c0-4.1531372-3.366745-7.5198669-7.5198746-7.5198669H54.7647896c-4.1531258,0-7.5198746,3.3667297-7.5198746,7.5198669v12.5107727 C47.244915,400.7741394,50.6116638,404.1408997,54.7647896,404.1408997z M20.0306587,451.9084167H7.5198736 C3.3667469,451.9084167,0,455.275177,0,459.4282837v12.5108032c0,4.1531372,3.3667469,7.5198669,7.5198736,7.5198669h12.5107851 c4.1531277,0,7.5198746-3.3667297,7.5198746-7.5198669v-12.5108032 C27.5505333,455.275177,24.1837864,451.9084167,20.0306587,451.9084167z M20.0306587,376.5903625H7.5198736 C3.3667469,376.5903625,0,379.9570923,0,384.1102295v12.5107727c0,4.1531372,3.3667469,7.5198975,7.5198736,7.5198975h12.5107851 c4.1531277,0,7.5198746-3.3667603,7.5198746-7.5198975v-12.5107727 C27.5505333,379.9570923,24.1837864,376.5903625,20.0306587,376.5903625z M492.4801331,301.2722778h-12.5108032 c-4.1531067,0-7.5198669,3.3667603-7.5198669,7.5198669v12.5108032c0,4.1531067,3.3667603,7.5198669,7.5198669,7.5198669h12.5108032 c4.1531067,0,7.5198669-3.3667603,7.5198669-7.5198669v-12.5108032 C500,304.6390381,496.6332397,301.2722778,492.4801331,301.2722778z M492.4801331,263.6132507h-12.5108032 c-4.1531067,0-7.5198669,3.3667297-7.5198669,7.5198669v12.5108032c0,4.1531067,3.3667603,7.5198669,7.5198669,7.5198669h12.5108032 c4.1531067,0,7.5198669-3.3667603,7.5198669-7.5198669v-12.5108032 C500,266.9799805,496.6332397,263.6132507,492.4801331,263.6132507z M445.235199,338.9313049h-12.5107727 c-4.1531372,0-7.5198669,3.3667603-7.5198669,7.5198975v12.5107727c0,4.1531372,3.3667297,7.5198669,7.5198669,7.5198669h12.5107727 c4.1531372,0,7.5198975-3.3667297,7.5198975-7.5198669v-12.5107727 C452.7550964,342.2980652,449.3883362,338.9313049,445.235199,338.9313049z M445.235199,301.2722778h-12.5107727 c-4.1531372,0-7.5198669,3.3667603-7.5198669,7.5198669v12.5108032c0,4.1531067,3.3667297,7.5198669,7.5198669,7.5198669h12.5107727 c4.1531372,0,7.5198975-3.3667603,7.5198975-7.5198669v-12.5108032 C452.7550964,304.6390381,449.3883362,301.2722778,445.235199,301.2722778z M397.9902954,338.9313049H385.479187 c-4.1528015,0-7.5198669,3.3667603-7.5198669,7.5198975v12.5107727c0,4.1531372,3.3670654,7.5198669,7.5198669,7.5198669h12.5111084 c4.1531372,0,7.5198669-3.3667297,7.5198669-7.5198669v-12.5107727 C405.5101624,342.2980652,402.1434326,338.9313049,397.9902954,338.9313049z M397.9902954,301.2722778H385.479187 c-4.1528015,0-7.5198669,3.3667603-7.5198669,7.5198669v12.5108032c0,4.1531067,3.3670654,7.5198669,7.5198669,7.5198669h12.5111084 c4.1531372,0,7.5198669-3.3667603,7.5198669-7.5198669v-12.5108032 C405.5101624,304.6390381,402.1434326,301.2722778,397.9902954,301.2722778z M397.9902954,263.6132507H385.479187 c-4.1528015,0-7.5198669,3.3667297-7.5198669,7.5198669v12.5108032c0,4.1531067,3.3670654,7.5198669,7.5198669,7.5198669h12.5111084 c4.1531372,0,7.5198669-3.3667603,7.5198669-7.5198669v-12.5108032 C405.5101624,266.9799805,402.1434326,263.6132507,397.9902954,263.6132507z M350.7450867,338.9313049h-12.510498 c-4.1534424,0-7.5198669,3.3667603-7.5198669,7.5198975v12.5107727c0,4.1531372,3.3664246,7.5198669,7.5198669,7.5198669h12.510498 c4.1534119,0,7.5198669-3.3667297,7.5198669-7.5198669v-12.5107727 C358.2649536,342.2980652,354.8984985,338.9313049,350.7450867,338.9313049z M350.7450867,301.2722778h-12.510498 c-4.1534424,0-7.5198669,3.3667603-7.5198669,7.5198669v12.5108032c0,4.1531067,3.3664246,7.5198669,7.5198669,7.5198669h12.510498 c4.1534119,0,7.5198669-3.3667603,7.5198669-7.5198669v-12.5108032 C358.2649536,304.6390381,354.8984985,301.2722778,350.7450867,301.2722778z M256.255249,263.6132507h-12.510788 c-4.1531372,0-7.5198822,3.3667297-7.5198822,7.5198669v12.5108032c0,4.1531067,3.366745,7.5198669,7.5198822,7.5198669h12.510788 c4.1531067,0,7.5198669-3.3667603,7.5198669-7.5198669v-12.5108032 C263.775116,266.9799805,260.4083557,263.6132507,256.255249,263.6132507z M209.0103302,338.9313049h-12.510788 c-4.1531372,0-7.5198822,3.3667603-7.5198822,7.5198975v12.5107727c0,4.1531372,3.366745,7.5198669,7.5198822,7.5198669h12.510788 c4.1531219,0,7.5198669-3.3667297,7.5198669-7.5198669v-12.5107727 C216.5301971,342.2980652,213.1634521,338.9313049,209.0103302,338.9313049z M209.0103302,301.2722778h-12.510788 c-4.1531372,0-7.5198822,3.3667603-7.5198822,7.5198669v12.5108032c0,4.1531067,3.366745,7.5198669,7.5198822,7.5198669h12.510788 c4.1531219,0,7.5198669-3.3667603,7.5198669-7.5198669v-12.5108032 C216.5301971,304.6390381,213.1634521,301.2722778,209.0103302,301.2722778z M161.7654114,338.9313049h-12.510788 c-4.1531219,0-7.5198822,3.3667603-7.5198822,7.5198975v12.5107727c0,4.1531372,3.3667603,7.5198669,7.5198822,7.5198669h12.510788 c4.1531219,0,7.5198669-3.3667297,7.5198669-7.5198669v-12.5107727 C169.2852783,342.2980652,165.9185333,338.9313049,161.7654114,338.9313049z M161.7654114,301.2722778h-12.510788 c-4.1531219,0-7.5198822,3.3667603-7.5198822,7.5198669v12.5108032c0,4.1531067,3.3667603,7.5198669,7.5198822,7.5198669h12.510788 c4.1531219,0,7.5198669-3.3667603,7.5198669-7.5198669v-12.5108032 C169.2852783,304.6390381,165.9185333,301.2722778,161.7654114,301.2722778z M161.7654114,263.6132507h-12.510788 c-4.1531219,0-7.5198822,3.3667297-7.5198822,7.5198669v12.5108032c0,4.1531067,3.3667603,7.5198669,7.5198822,7.5198669h12.510788 c4.1531219,0,7.5198669-3.3667603,7.5198669-7.5198669v-12.5108032 C169.2852783,266.9799805,165.9185333,263.6132507,161.7654114,263.6132507z M114.5204926,263.6132507h-12.510788 c-4.1531219,0-7.5198746,3.3667297-7.5198746,7.5198669v12.5108032c0,4.1531067,3.3667526,7.5198669,7.5198746,7.5198669h12.510788 c4.1531296,0,7.5198746-3.3667603,7.5198746-7.5198669v-12.5108032 C122.0403671,266.9799805,118.6736221,263.6132507,114.5204926,263.6132507z M54.7647896,366.481842h12.5107841 c4.1531296,0,7.5198746-3.3667297,7.5198746-7.5198669v-12.5107727c0-4.1531372-3.366745-7.5198975-7.5198746-7.5198975H54.7647896 c-4.1531258,0-7.5198746,3.3667603-7.5198746,7.5198975v12.5107727 C47.244915,363.1151123,50.6116638,366.481842,54.7647896,366.481842z M54.7647896,291.1637878h12.5107841 c4.1531296,0,7.5198746-3.3667603,7.5198746-7.5198669v-12.5108032c0-4.1531372-3.366745-7.5198669-7.5198746-7.5198669H54.7647896 c-4.1531258,0-7.5198746,3.3667297-7.5198746,7.5198669v12.5108032 C47.244915,287.7970276,50.6116638,291.1637878,54.7647896,291.1637878z M20.0306587,338.9313049H7.5198736 C3.3667469,338.9313049,0,342.2980652,0,346.4512024v12.5107727c0,4.1531372,3.3667469,7.5198669,7.5198736,7.5198669h12.5107851 c4.1531277,0,7.5198746-3.3667297,7.5198746-7.5198669v-12.5107727 C27.5505333,342.2980652,24.1837864,338.9313049,20.0306587,338.9313049z"/></g></svg>